<?xml version="1.0" encoding="UTF-8"?>
<svg width="298px" height="72px" viewBox="0 0 298 72" version="1.1" xmlns="http://www.w3.org/2000/svg" xmlns:xlink="http://www.w3.org/1999/xlink">
    <title>logo</title>
    <desc>Created with Sketch.</desc>
    <defs>
        <filter x="-2.4%" y="-7.6%" width="104.8%" height="121.2%" filterUnits="objectBoundingBox" id="filter-1">
            <feOffset dx="0" dy="2" in="SourceAlpha" result="shadowOffsetOuter1"></feOffset>
            <feGaussianBlur stdDeviation="2" in="shadowOffsetOuter1" result="shadowBlurOuter1"></feGaussianBlur>
            <feColorMatrix values="0 0 0 0 0   0 0 0 0 0   0 0 0 0 0  0 0 0 0.5 0" type="matrix" in="shadowBlurOuter1" result="shadowMatrixOuter1"></feColorMatrix>
            <feMerge>
                <feMergeNode in="shadowMatrixOuter1"></feMergeNode>
                <feMergeNode in="SourceGraphic"></feMergeNode>
            </feMerge>
        </filter>
    </defs>
    <g id="Page-1" stroke="none" stroke-width="1" fill="none" fill-rule="evenodd">
        <g id="logo" filter="url(#filter-1)" transform="translate(3.000000, 1.000000)" fill="#FFFFFF" fill-rule="nonzero">
            <g id="SvgjsG1086" transform="translate(0.665256, 0.583997)">
                <g id="Group">
                    <path d="M0.340819919,39.0062779 C0.746807602,18.0050294 22.7353103,2.74903099 47.0159205,0.713849192 C52.9282098,0.220222101 62.9310871,0.0816469695 70.3347445,2.39922242 L63.3295843,15.3226643 C58.4397548,14.0784843 52.6667897,13.7241814 46.9118019,13.9766129 C22.1450551,14.8335315 6.55872353,29.365194 6.21116212,44.0579033 C6.02839276,51.8600577 9.79538918,59.3738261 17.274701,63.7190928 L16.7863173,64.1363163 C5.93101564,58.7341333 0.119848763,50.2346089 0.340819919,39.0062779 Z" id="Shape"></path>
                    <path d="M11.8680237,43.9365564 C14.3241743,31.6730317 27.983188,22.3053528 49.4466032,23.4251897 C52.4188526,23.5817422 55.7933443,23.8731245 58.8052935,24.5330417 L52.6008729,35.9733552 C50.6698097,35.7081898 47.6548642,35.1711175 45.06688,35.0317933 C28.1569687,34.1471596 17.752598,41.1433312 16.0267758,50.0645734 C15.100195,54.8547787 17.0642166,60.207524 21.965282,63.5730271 L21.473902,63.9505507 C13.0814924,59.3064111 10.3631727,51.4338455 11.8680237,43.9365564 Z" id="Shape"></path>
                    <path d="M22.0034838,50.1462204 C26.1113001,43.2384373 38.4909282,41.0017598 49.5439804,43.6863721 L46.3035694,49.6263764 C37.517157,47.6046776 27.3449933,48.977695 24.4296722,54.0428033 C22.8446723,56.7993248 23.7285569,60.5872948 25.5187978,63.2606712 L25.1907118,63.5910044 C21.0581766,59.8944191 19.5548237,54.2675197 22.0034838,50.1462204 Z" id="Shape"></path>
                </g>
            </g>
            <g id="SvgjsG1087" transform="translate(90.297765, 14.000000)">
                <path d="M21.2141867,0 L21.2141867,4.34070316 L13.2987869,4.34070316 L13.2987869,29.7891393 L8.61763641,29.7891393 L8.61763641,4.34070316 L0.70223653,4.34070316 L0.70223653,0 L21.2141867,0 Z M35.8534209,7.27706118 C40.8750187,7.27706118 47.3009616,11.1070934 47.3009616,18.7671578 C47.3009616,26.4697781 40.8750187,30.2146984 35.8534209,30.2146984 C30.8318232,30.2146984 24.4058802,26.4697781 24.4058802,18.7671578 C24.4058802,11.1070934 30.8318232,7.27706118 35.8534209,7.27706118 Z M35.8534209,11.3624289 C32.6191715,11.3624289 28.8742511,13.8306718 28.8742511,18.7671578 C28.8742511,23.6610878 32.6191715,26.1293308 35.8534209,26.1293308 C39.0876703,26.1293308 42.8325907,23.6610878 42.8325907,18.7671578 C42.8325907,13.8306718 39.0876703,11.3624289 35.8534209,11.3624289 Z M60.9614098,0 C69.5577043,0 76.0262031,6.59616656 76.0262031,14.8094578 C76.0262031,23.1929728 69.5577043,29.7891393 60.9614098,29.7891393 L51.3437734,29.7891393 L51.3437734,0 L60.9614098,0 Z M60.9188539,25.3633243 C67.4299086,25.3633243 71.2599408,20.639618 71.2599408,14.8094578 C71.2599408,9.14952136 67.4299086,4.42581498 60.9188539,4.42581498 L56.0249238,4.42581498 L56.0249238,25.3633243 L60.9188539,25.3633243 Z M90.6654373,7.27706118 C95.687035,7.27706118 102.112978,11.1070934 102.112978,18.7671578 C102.112978,26.4697781 95.687035,30.2146984 90.6654373,30.2146984 C85.6438395,30.2146984 79.2178966,26.4697781 79.2178966,18.7671578 C79.2178966,11.1070934 85.6438395,7.27706118 90.6654373,7.27706118 Z M90.6654373,11.3624289 C87.4311879,11.3624289 83.6862675,13.8306718 83.6862675,18.7671578 C83.6862675,23.6610878 87.4311879,26.1293308 90.6654373,26.1293308 C93.8996867,26.1293308 97.6446071,23.6610878 97.6446071,18.7671578 C97.6446071,13.8306718 93.8996867,11.3624289 90.6654373,11.3624289 Z M142.881543,29.7891393 L140.157964,23.4908641 L124.922947,23.4908641 L122.199369,29.7891393 L117.220327,29.7891393 L130.497772,0 L134.58314,0 L147.860585,29.7891393 L142.881543,29.7891393 Z M126.625184,19.618276 L138.455728,19.618276 L132.540456,5.91527195 L126.625184,19.618276 Z M162.840266,7.27706118 C167.861864,7.27706118 173.862248,11.1070934 173.862248,18.7246019 C173.862248,26.4697781 167.861864,30.2146984 162.840266,30.2146984 C158.84001,30.2146984 156.201544,27.9166791 155.648317,26.1293308 L155.648317,37.8747628 L151.052278,37.8747628 L151.052278,24.3845383 L151.052278,7.6600644 L155.648317,7.6600644 L155.648317,11.1070934 C156.201544,9.66019232 158.84001,7.27706118 162.840266,7.27706118 Z M162.244483,26.1293308 C165.691512,26.1293308 169.393877,23.6610878 169.393877,18.7246019 C169.393877,13.8306718 165.691512,11.3624289 162.244483,11.3624289 C158.797454,11.3624289 155.435537,13.7881159 155.435537,18.7246019 C155.435537,23.7036437 158.797454,26.1293308 162.244483,26.1293308 Z M189.480268,7.27706118 C194.501866,7.27706118 200.50225,11.1070934 200.50225,18.7246019 C200.50225,26.4697781 194.501866,30.2146984 189.480268,30.2146984 C185.480012,30.2146984 182.841545,27.9166791 182.288319,26.1293308 L182.288319,37.8747628 L177.69228,37.8747628 L177.69228,24.3845383 L177.69228,7.6600644 L182.288319,7.6600644 L182.288319,11.1070934 C182.841545,9.66019232 185.480012,7.27706118 189.480268,7.27706118 Z M188.884485,26.1293308 C192.331514,26.1293308 196.033879,23.6610878 196.033879,18.7246019 C196.033879,13.8306718 192.331514,11.3624289 188.884485,11.3624289 C185.437456,11.3624289 182.075539,13.7881159 182.075539,18.7246019 C182.075539,23.7036437 185.437456,26.1293308 188.884485,26.1293308 Z" id="Shape"></path>
            </g>
        </g>
    </g>
</svg>